<?xml version="1.0" standalone="no"?>
<!DOCTYPE svg PUBLIC "-//W3C//DTD SVG 20010904//EN"
 "http://www.w3.org/TR/2001/REC-SVG-20010904/DTD/svg10.dtd">
<svg version="1.0" xmlns="http://www.w3.org/2000/svg"
 width="624.000000pt" height="624.000000pt" viewBox="0 0 624.000000 624.000000"
 preserveAspectRatio="xMidYMid meet">
<metadata>
Created by potrace 1.14, written by Peter Selinger 2001-2017
</metadata>
<g transform="translate(0.000000,624.000000) scale(0.100000,-0.100000)"
fill="#000000" stroke="none">
<path d="M3680 5043 c0 -10 55 -108 65 -115 5 -4 6 -8 1 -8 -5 0 -2 -8 6 -17
8 -10 31 -47 51 -83 19 -36 48 -88 64 -115 16 -28 32 -57 36 -65 4 -8 17 -31
28 -50 19 -31 118 -206 187 -330 13 -25 40 -70 58 -101 19 -31 34 -59 34 -62
0 -3 17 -34 38 -68 21 -35 52 -89 69 -119 59 -108 139 -249 153 -270 6 -8 20
-33 31 -55 11 -22 37 -69 59 -105 22 -36 43 -73 46 -82 4 -10 10 -18 14 -18 8
0 80 118 80 131 0 5 4 9 8 9 4 0 14 16 21 35 7 19 17 35 22 35 5 0 9 5 9 10 0
6 18 39 40 74 22 35 40 66 40 71 0 4 8 19 19 33 29 42 151 254 151 263 0 5 4
9 10 9 5 0 12 11 16 25 3 14 10 25 15 25 5 0 9 5 9 10 0 6 11 27 24 48 52 82
156 263 156 272 0 6 5 10 10 10 6 0 10 4 10 9 0 7 165 293 220 381 69 111 116
200 107 201 -7 0 -217 2 -467 5 -250 2 -490 5 -533 7 -44 1 -81 -1 -84 -6 -2
-4 -9 -4 -15 -1 -12 8 -808 14 -808 7z"/>
<path d="M580 5007 c11 -18 23 -39 27 -47 4 -8 64 -115 135 -238 70 -122 128
-227 128 -232 0 -6 5 -10 10 -10 6 0 10 -4 10 -9 0 -7 25 -52 134 -242 24 -43
104 -185 121 -214 6 -11 23 -39 38 -62 15 -24 27 -45 27 -48 0 -5 129 -233
150 -265 6 -8 13 -22 17 -30 4 -8 26 -48 50 -88 24 -40 43 -75 43 -78 0 -3 10
-20 23 -39 23 -34 23 -34 37 -12 25 38 80 129 80 132 0 5 373 641 392 668 11
15 16 27 12 27 -4 0 0 8 8 18 8 9 32 46 52 82 20 36 41 72 46 80 34 55 90 153
90 156 0 3 9 17 19 32 38 54 253 433 249 437 -3 3 -435 7 -961 9 l-956 5 19
-32z"/>
<path d="M3100 4870 c0 -5 -20 -44 -45 -86 -25 -41 -45 -77 -45 -79 0 -2 -18
-33 -41 -70 -22 -37 -49 -82 -58 -99 -10 -17 -42 -74 -71 -126 -30 -52 -56
-97 -59 -100 -4 -3 -12 -16 -18 -30 -16 -32 -63 -114 -97 -168 -14 -23 -26
-44 -26 -48 0 -3 -8 -18 -19 -32 -10 -15 -31 -49 -45 -77 -15 -27 -36 -63 -47
-80 -10 -16 -22 -37 -26 -45 -4 -8 -20 -37 -36 -65 -37 -62 -62 -107 -95 -165
-13 -25 -28 -49 -32 -55 -5 -5 -23 -37 -41 -70 -18 -33 -35 -62 -38 -65 -3 -3
-15 -23 -26 -45 -11 -22 -22 -42 -25 -45 -19 -19 -53 -90 -46 -97 3 -4 1677
-6 1885 -3 25 0 31 3 23 13 -5 6 -19 28 -30 47 -11 19 -36 64 -57 100 -21 36
-46 81 -57 100 -11 19 -96 166 -189 326 -93 161 -169 297 -169 303 0 6 -4 11
-8 11 -4 0 -19 22 -33 50 -13 27 -27 50 -31 50 -5 0 -8 4 -8 9 0 4 -23 48 -51
97 -29 49 -59 103 -69 119 -9 17 -43 74 -74 127 -31 54 -56 102 -56 108 0 5
-4 10 -10 10 -5 0 -10 4 -10 9 0 16 -102 181 -111 181 -5 0 -9 -4 -9 -10z"/>
<path d="M2132 3016 c15 -29 206 -367 218 -386 30 -49 136 -237 138 -247 2 -7
8 -13 14 -13 6 0 8 -3 5 -7 -4 -3 -1 -13 7 -22 8 -9 26 -38 41 -66 14 -27 40
-72 56 -100 16 -27 34 -61 40 -75 6 -14 16 -32 23 -40 7 -8 30 -46 51 -85 21
-38 41 -74 45 -80 4 -5 19 -30 32 -55 48 -86 70 -126 124 -217 30 -51 59 -103
64 -115 6 -13 23 -43 39 -68 16 -25 30 -51 30 -57 2 -35 36 11 127 172 19 34
48 84 169 290 64 110 127 218 140 240 12 22 52 91 89 153 36 62 66 117 66 123
0 5 4 9 8 9 4 0 18 19 30 43 12 23 33 60 46 82 14 22 47 78 73 124 26 46 53
91 58 100 6 9 35 59 64 111 30 52 68 115 83 139 15 25 28 48 28 52 0 7 -125 8
-1337 13 l-582 2 11 -20z"/>
<path d="M4603 2903 c-4 -10 -9 -20 -12 -23 -3 -3 -11 -14 -17 -25 -46 -86
-60 -111 -64 -115 -3 -3 -14 -23 -26 -45 -27 -51 -241 -435 -254 -455 -6 -8
-16 -26 -23 -40 -11 -23 -66 -120 -129 -229 -15 -25 -39 -71 -55 -101 -15 -30
-30 -57 -34 -60 -3 -3 -21 -34 -41 -70 -19 -36 -77 -139 -128 -230 -51 -91
-103 -184 -116 -207 -24 -41 -31 -69 -16 -60 4 3 246 8 537 11 292 4 716 9
944 12 228 2 417 7 420 10 3 3 -1 14 -8 26 -7 11 -21 35 -30 52 -23 39 -128
216 -141 236 -6 8 -13 22 -17 30 -3 8 -19 34 -35 57 -15 23 -28 43 -28 46 0 2
-52 90 -115 196 -63 106 -115 195 -115 197 0 3 -9 17 -19 32 -15 22 -227 377
-332 557 -131 224 -134 229 -146 198z"/>
<path d="M1533 2844 c-11 -22 -50 -91 -88 -154 -38 -63 -77 -131 -87 -150 -10
-19 -28 -51 -39 -70 -116 -195 -279 -481 -279 -489 0 -6 -4 -11 -8 -11 -5 0
-19 -22 -32 -50 -13 -27 -27 -50 -32 -50 -4 0 -8 -4 -8 -10 0 -5 -24 -50 -52
-100 -63 -107 -62 -106 -113 -195 -22 -39 -45 -79 -52 -90 -7 -11 -15 -27 -19
-35 -4 -8 -21 -37 -38 -65 -38 -61 -88 -155 -84 -156 17 -5 1903 -2 1911 3 9
6 9 8 0 8 -7 0 -13 8 -13 18 0 10 -4 22 -9 28 -8 8 -169 282 -249 424 -14 25
-71 124 -127 220 -56 96 -121 209 -145 250 -23 41 -51 90 -61 108 -46 79 -62
107 -160 277 -57 99 -106 182 -109 185 -3 3 -16 26 -29 52 -14 25 -32 56 -41
68 l-17 22 -20 -38z"/>
</g>
</svg>
